<svg width="1600" height="1000" viewBox="0 0 1600 1000" fill="none" xmlns="http://www.w3.org/2000/svg">
  <defs>
    <linearGradient id="bg" x1="0" y1="0" x2="1600" y2="1000" gradientUnits="userSpaceOnUse">
      <stop stop-color="#020617"/>
      <stop offset="0.55" stop-color="#0F172A"/>
      <stop offset="1" stop-color="#111827"/>
    </linearGradient>
    <radialGradient id="glowA" cx="0" cy="0" r="1" gradientUnits="userSpaceOnUse" gradientTransform="translate(1080 430) rotate(137) scale(470 310)">
      <stop stop-color="#38BDF8" stop-opacity="0.35"/>
      <stop offset="1" stop-color="#38BDF8" stop-opacity="0"/>
    </radialGradient>
    <radialGradient id="glowB" cx="0" cy="0" r="1" gradientUnits="userSpaceOnUse" gradientTransform="translate(1240 520) rotate(160) scale(420 290)">
      <stop stop-color="#A78BFA" stop-opacity="0.28"/>
      <stop offset="1" stop-color="#A78BFA" stop-opacity="0"/>
    </radialGradient>
    <linearGradient id="metal" x1="729" y1="201" x2="1423" y2="780" gradientUnits="userSpaceOnUse">
      <stop stop-color="#E2E8F0"/>
      <stop offset="0.4" stop-color="#CBD5E1"/>
      <stop offset="1" stop-color="#94A3B8"/>
    </linearGradient>
    <linearGradient id="panel" x1="940" y1="314" x2="1248" y2="580" gradientUnits="userSpaceOnUse">
      <stop stop-color="#1E293B"/>
      <stop offset="1" stop-color="#0B1220"/>
    </linearGradient>
    <linearGradient id="scanLight" x1="830" y1="484" x2="1306" y2="484" gradientUnits="userSpaceOnUse">
      <stop stop-color="#22D3EE" stop-opacity="0"/>
      <stop offset="0.25" stop-color="#22D3EE" stop-opacity="0.28"/>
      <stop offset="0.5" stop-color="#38BDF8" stop-opacity="0.65"/>
      <stop offset="0.75" stop-color="#22D3EE" stop-opacity="0.28"/>
      <stop offset="1" stop-color="#22D3EE" stop-opacity="0"/>
    </linearGradient>
    <filter id="soft" x="-50%" y="-50%" width="200%" height="200%">
      <feGaussianBlur stdDeviation="28"/>
    </filter>
  </defs>

  <rect width="1600" height="1000" fill="url(#bg)"/>
  <rect width="1600" height="1000" fill="url(#glowA)"/>
  <rect width="1600" height="1000" fill="url(#glowB)"/>

  <g opacity="0.22">
    <path d="M0 770H1600" stroke="#334155"/>
    <path d="M0 820H1600" stroke="#334155"/>
    <path d="M0 870H1600" stroke="#334155"/>
    <path d="M0 920H1600" stroke="#334155"/>
  </g>

  <ellipse cx="1110" cy="790" rx="330" ry="76" fill="#0B1220"/>
  <ellipse cx="1110" cy="790" rx="290" ry="60" fill="#111827"/>

  <rect x="742" y="626" width="675" height="74" rx="20" fill="#CBD5E1"/>
  <rect x="762" y="640" width="635" height="44" rx="14" fill="#E2E8F0"/>
  <rect x="822" y="646" width="250" height="34" rx="8" fill="#F8FAFC"/>

  <rect x="730" y="540" width="692" height="66" rx="18" fill="url(#metal)"/>
  <rect x="766" y="556" width="618" height="34" rx="10" fill="#F1F5F9"/>
  <rect x="784" y="560" width="350" height="26" rx="6" fill="#E2E8F0"/>

  <circle cx="1068" cy="474" r="292" fill="url(#metal)"/>
  <circle cx="1068" cy="474" r="222" fill="#E2E8F0"/>
  <circle cx="1068" cy="474" r="170" fill="url(#panel)"/>
  <circle cx="1068" cy="474" r="136" fill="#0A1423"/>
  <circle cx="1068" cy="474" r="126" stroke="#0EA5E9" stroke-opacity="0.32" stroke-width="2"/>

  <rect x="840" y="460" width="454" height="48" rx="14" fill="#111827"/>
  <rect x="840" y="460" width="454" height="48" rx="14" fill="url(#scanLight)"/>
  <rect x="845" y="474" width="444" height="8" rx="4" fill="#22D3EE" fill-opacity="0.35"/>

  <rect x="980" y="298" width="188" height="30" rx="15" fill="#334155"/>
  <circle cx="1004" cy="313" r="6" fill="#22C55E"/>
  <circle cx="1026" cy="313" r="6" fill="#38BDF8"/>
  <circle cx="1048" cy="313" r="6" fill="#A78BFA"/>

  <rect x="730" y="258" width="130" height="290" rx="16" fill="#475569"/>
  <rect x="748" y="280" width="94" height="246" rx="10" fill="#1E293B"/>
  <path d="M760 315H830" stroke="#38BDF8" stroke-opacity="0.6" stroke-width="4" stroke-linecap="round"/>
  <path d="M760 340H815" stroke="#64748B" stroke-width="3" stroke-linecap="round"/>
  <path d="M760 362H824" stroke="#64748B" stroke-width="3" stroke-linecap="round"/>

  <rect x="1225" y="256" width="145" height="326" rx="18" fill="#64748B"/>
  <rect x="1246" y="278" width="102" height="172" rx="10" fill="#0F172A"/>
  <path d="M1260 312H1335" stroke="#38BDF8" stroke-opacity="0.65" stroke-width="4" stroke-linecap="round"/>
  <path d="M1260 338H1322" stroke="#334155" stroke-width="3" stroke-linecap="round"/>
  <path d="M1260 360H1316" stroke="#334155" stroke-width="3" stroke-linecap="round"/>
  <rect x="1260" y="474" width="76" height="84" rx="8" fill="#1E293B"/>

  <g opacity="0.55">
    <path d="M1040 413C1060 393 1088 392 1109 411C1128 429 1129 456 1109 476C1089 496 1061 496 1041 476C1021 457 1021 431 1040 413Z" stroke="#CBD5E1" stroke-width="2"/>
    <path d="M1018 474H1118" stroke="#64748B" stroke-width="2" stroke-linecap="round"/>
    <path d="M1068 422V526" stroke="#64748B" stroke-width="2" stroke-linecap="round"/>
  </g>

  <ellipse cx="1068" cy="474" rx="152" ry="36" fill="#38BDF8" fill-opacity="0.12" filter="url(#soft)"/>
  <ellipse cx="1050" cy="470" rx="120" ry="24" fill="#A78BFA" fill-opacity="0.12" filter="url(#soft)"/>
</svg>
